<?xml version="1.0" encoding="utf-8"?>
<!-- Generator: Adobe Illustrator 24.3.0, SVG Export Plug-In . SVG Version: 6.00 Build 0)  -->
<svg version="1.1" id="icon" xmlns="http://www.w3.org/2000/svg" xmlns:xlink="http://www.w3.org/1999/xlink" x="0px" y="0px"
	 viewBox="0 0 32 32" style="enable-background:new 0 0 32 32;" xml:space="preserve">
<style type="text/css">
	.st0{fill:#FFFFFF;}
	.st1{fill:none;}
</style>
<path class="st0" d="M6.8,6l0.4,0.9L7.8,8H12v5H4V6H6.8 M7.4,4H3C2.4,4,2,4.4,2,5v9c0,0.6,0.4,1,1,1h10c0.6,0,1-0.4,1-1V7
	c0-0.6-0.4-1-1-1H9L8.3,4.6C8.1,4.2,7.8,4,7.4,4z"/>
<path class="st0" d="M22.8,6l0.5,0.9L23.8,8H28v5h-8V6H22.8 M23.4,4H19c-0.6,0-1,0.4-1,1v9c0,0.6,0.4,1,1,1h10c0.6,0,1-0.4,1-1V7
	c0-0.6-0.4-1-1-1h-4l-0.7-1.4C24.1,4.2,23.8,4,23.4,4z"/>
<path class="st0" d="M6.8,19l0.4,0.9L7.8,21H12v5H4v-7H6.8 M7.4,17H3c-0.6,0-1,0.4-1,1v9c0,0.6,0.4,1,1,1h10c0.6,0,1-0.4,1-1v-7
	c0-0.6-0.4-1-1-1H9l-0.7-1.5C8.1,17.2,7.8,17,7.4,17z"/>
<path class="st0" d="M22.8,19l0.5,0.9l0.5,1.1H28v5h-8v-7H22.8 M23.4,17H19c-0.6,0-1,0.4-1,1v9c0,0.6,0.4,1,1,1h10c0.6,0,1-0.4,1-1
	v-7c0-0.6-0.4-1-1-1h-4l-0.7-1.5C24.1,17.2,23.8,17,23.4,17z"/>
<rect id="_Transparent_Rectangle_" class="st1" width="32" height="32"/>
</svg>
