<?xml version="1.0" encoding="utf-8"?>
<!-- Generator: Adobe Illustrator 24.3.0, SVG Export Plug-In . SVG Version: 6.00 Build 0)  -->
<svg version="1.1" id="Capa_1" xmlns="http://www.w3.org/2000/svg" xmlns:xlink="http://www.w3.org/1999/xlink" x="0px" y="0px"
	 viewBox="0 0 118.7 118.7" style="enable-background:new 0 0 118.7 118.7;" xml:space="preserve">
<style type="text/css">
	.st0{fill:#FFFFFF;}
</style>
<g>
	<path class="st0" d="M94.8,50.1c-0.1-1.6-1.2-3.9-2.4-5.1L66.8,19.4c-1.2-1.2-3.1-1.2-4.2,0l-5.4,5.4c-2.1-2.6-4.4-5.1-6.9-7.7
		C40.1,6.9,29.1,0,23.1,0c-1.5,0-2.6,0.4-3.4,1.2c-2.1,2.1-1.5,6.4,1.7,12.4c3,5.6,8.1,12.1,14.2,18.3C45.9,42.1,56.8,49,62.8,49
		c1.5,0,2.6-0.4,3.4-1.2c1.5-1.5,1.6-4.2,0.4-7.7c3.2,0.8,5.6,3.6,5.6,7.1c0,4.1-3.4,7.5-7.5,7.5c-3.3,0-6-2.2-7-5.2
		c-1.4-0.5-2.9-1.1-4.6-2c-3.4-1.8-7.2-4.5-10.9-7.6L37,45c-1.2,1.2-2.2,3.4-2.4,5.1l-5.4,65.7c-0.1,1.6,1.1,3,2.7,3h65.6
		c1.6,0,2.9-1.3,2.7-3L94.8,50.1z M22.7,12.9c-2.8-5.1-3.5-9.1-2-10.6c0.5-0.5,1.3-0.8,2.4-0.8c5.5,0,16.3,6.9,26.1,16.7
		c2.5,2.5,4.8,5.1,6.9,7.7L44.3,37.7c-2.6-2.1-5.1-4.4-7.7-6.9C30.6,24.8,25.7,18.4,22.7,12.9z M65.1,46.7c-0.5,0.5-1.3,0.8-2.4,0.8
		c-1.4,0-3.2-0.5-5.3-1.3c0.5-3.6,3.5-6.5,7.2-6.5c0.1,0,0.1,0,0.1,0C66.2,43.1,66.3,45.6,65.1,46.7z"/>
</g>
</svg>
