<?xml version="1.0" encoding="utf-8"?>
<!-- Generator: Adobe Illustrator 24.3.0, SVG Export Plug-In . SVG Version: 6.00 Build 0)  -->
<svg version="1.1" id="Capa_1" xmlns="http://www.w3.org/2000/svg" xmlns:xlink="http://www.w3.org/1999/xlink" x="0px" y="0px"
	 viewBox="0 0 480.1 480.1" style="enable-background:new 0 0 480.1 480.1;" xml:space="preserve">
<style type="text/css">
	.st0{fill:#FFFFFF;}
</style>
<g>
	<g>
		<path class="st0" d="M19,98.3h73.2l74.3,236.6c2.5,7.9,9.9,13.3,18.2,13.3h231.9c10.5,0,19-8.5,19-19s-8.5-19-19-19H198.7
			l-14.9-47.3h238c16.7,0,32-12.3,35.5-28.6l21.9-100c2-9.2-0.1-18.6-5.7-25.6c-5.7-7-14.4-11.1-23.8-11.1H131.9l-7.5-23.9
			c-2.5-7.9-9.9-13.3-18.2-13.3H19c-10.5,0-19,8.5-19,19S8.5,98.3,19,98.3z M420.7,224.7l-247.6,0.1c-0.2-0.1-0.6-0.3-0.8-0.3
			c0,0-0.1,0-0.1,0.1l-8.3-25.4h262.3L420.7,224.7z M143.9,135.5H440l-5.5,25.5H151.9h-0.5l-8.4-25.5H143.9z"/>
		<circle class="st0" cx="210" cy="392.8" r="27"/>
		<circle class="st0" cx="377.4" cy="392.8" r="27"/>
	</g>
</g>
</svg>
