<?xml version="1.0" encoding="utf-8"?>
<!-- Generator: Adobe Illustrator 24.3.0, SVG Export Plug-In . SVG Version: 6.00 Build 0)  -->
<svg version="1.1" id="Layer_1" xmlns="http://www.w3.org/2000/svg" xmlns:xlink="http://www.w3.org/1999/xlink" x="0px" y="0px"
	 viewBox="0 0 330 330" style="enable-background:new 0 0 330 330;" xml:space="preserve">
<style type="text/css">
	.st0{fill:#FFFFFF;}
</style>
<path id="XMLID_27_" class="st0" d="M15.5,180h263.2c0.1,0,0.1,0.1,0,0.1l-49.3,49.3c-5.9,5.9-5.9,15.4,0,21.2
	c2.9,2.9,6.8,4.4,10.6,4.4s7.7-1.5,10.6-4.4l75-75c5.9-5.9,5.9-15.4,0-21.2l-75-75c-5.9-5.9-15.4-5.9-21.2,0s-5.9,15.4,0,21.2
	l49.3,49.3c0,0,0,0.1,0,0.1H15c-8.5,0-15.3,7-15,15.6C0.3,173.7,7.3,180,15.5,180z"/>
</svg>
